<svg id="Capa_1" data-name="Capa 1" xmlns="http://www.w3.org/2000/svg" xmlns:xlink="http://www.w3.org/1999/xlink" viewBox="0 0 403.8 294.18"><defs><style>.cls-1{font-size:35.89px;fill:#8e690d;font-family:ArialRoundedMTBold, Arial Rounded MT Bold;}.cls-2{letter-spacing:-0.02em;}.cls-3{fill:url(#Degradado_sin_nombre_1185);}.cls-4{fill:url(#Radial_dorado);}.cls-5{fill:url(#Radial_dorado-2);}.cls-6{fill:url(#Plomo);}.cls-7{fill:url(#Degradado_sin_nombre_1157);}</style><radialGradient id="Degradado_sin_nombre_1185" cx="465.31" cy="250.68" r="14.27" gradientUnits="userSpaceOnUse"><stop offset="0" stop-color="#fffad2"/><stop offset="0.11" stop-color="#fcf2c1"/><stop offset="0.34" stop-color="#f3df94"/><stop offset="0.37" stop-color="#f2dc8e"/><stop offset="0.85" stop-color="#f0bf00"/></radialGradient><radialGradient id="Radial_dorado" cx="279.6" cy="364.36" r="92.27" gradientUnits="userSpaceOnUse"><stop offset="0" stop-color="#fffad2"/><stop offset="0.11" stop-color="#fcf2c1"/><stop offset="0.34" stop-color="#f3df94"/><stop offset="0.37" stop-color="#f2dc8e"/><stop offset="0.69" stop-color="#f0bf00"/><stop offset="1" stop-color="#c9961a"/></radialGradient><radialGradient id="Radial_dorado-2" cx="403.1" cy="340.61" r="74.71" xlink:href="#Radial_dorado"/><linearGradient id="Plomo" x1="363.93" y1="386.8" x2="469.61" y2="386.8" gradientUnits="userSpaceOnUse"><stop offset="0.01" stop-color="#cecece"/><stop offset="0.36" stop-color="#9d9d9c"/><stop offset="0.57" stop-color="#ababab"/><stop offset="0.65" stop-color="#b2b2b2"/><stop offset="0.87" stop-color="#b4b4b4"/><stop offset="1" stop-color="#b2b2b2"/><stop offset="1" stop-color="#dadada"/></linearGradient><radialGradient id="Degradado_sin_nombre_1157" cx="164.98" cy="364.36" r="85.46" gradientUnits="userSpaceOnUse"><stop offset="0" stop-color="#fff49b"/><stop offset="0.25" stop-color="#f3da6f"/><stop offset="0.31" stop-color="#f2d55a"/><stop offset="0.44" stop-color="#f1c825"/><stop offset="0.52" stop-color="#f0bf00"/><stop offset="1" stop-color="#c9961a"/></radialGradient></defs><text class="cls-1" transform="translate(0 286.61)">G<tspan class="cls-2" x="28.43" y="0">R</tspan><tspan x="53.35" y="0">UPO EMPRESARIAL</tspan></text><path class="cls-3" d="M465.31,265a14.28,14.28,0,1,1,14.27-14.28A14.3,14.3,0,0,1,465.31,265Zm0-18.55a4.28,4.28,0,1,0,4.27,4.27A4.28,4.28,0,0,0,465.31,246.41Z" transform="translate(-109.59 -236.41)"/><path class="cls-4" d="M330.81,374.32q-6.58-14.42-22.41-28.55L295,334.35q-19.12-14-26.46-23.86t-7.34-19.72a26.78,26.78,0,0,1,6.08-17.08,19.53,19.53,0,0,1,16.07-7.64,20.33,20.33,0,0,1,11.37,3.06c10.76,7.05,11,25.34,10.91,30.95a60.71,60.71,0,0,1-9.54,31.65l14.67,12.2C315,340,330.4,325,332,301.17c.42-6.2,1.64-24.09-10.89-38.3-13.59-15.41-33.66-15.49-40.83-15.51-5.06,0-16.78.12-28.68,7.35A48.58,48.58,0,0,0,241,263.5q-14.75,16.14-14.74,43,0,33.56,24.05,56.13l12.4,12,17.59,15.7q13.29,11.55,18.61,20.19t5.31,21.18q0,13.56-7.33,21.19a24.44,24.44,0,0,1-18.36,7.64,28.45,28.45,0,0,1-14.36-4.1,29.61,29.61,0,0,1-9-8.62c-8.93-12.66-6.41-29.13-5.65-34.09a63.19,63.19,0,0,1,16-32.84L249.24,366c-3.28,2.66-26.58,22.11-27.41,51.89-.5,17.73,7.16,32.36,8,33.84a63.73,63.73,0,0,0,7.8,11.32q15.75,18.35,39.8,18.34,24.94,0,42.47-19.84t17.53-53.66Q337.39,388.74,330.81,374.32Z" transform="translate(-109.59 -236.41)"/><path class="cls-5" d="M383.72,399.49a233.46,233.46,0,0,1-3-37.79c0-47.54,13-86.08,29.12-86.08,11.17,0,20.87,18.62,25.76,45.93L456,291c-10.95-25.52-27.55-41.79-46.14-41.79-33,0-59.73,51.23-59.73,114.42,0,25.67,4.42,49.37,11.87,68.45Z" transform="translate(-109.59 -236.41)"/><path class="cls-6" d="M436.62,327.55A237.92,237.92,0,0,1,439,361.7c0,47.55-13,86.09-29.12,86.09-10.7,0-20-17.05-25.1-42.45l-20.86,31.31c10.95,25.27,27.47,41.36,46,41.36,33,0,59.72-51.22,59.72-114.42,0-25.47-4.35-49-11.69-68Z" transform="translate(-109.59 -236.41)"/><path class="cls-7" d="M195.27,247.36v234H160.53V305.13q-13.92,12.69-25.83,14.23V288.5q27.38-5.14,38.56-41.14Z" transform="translate(-109.59 -236.41)"/></svg>